<?xml version="1.0" encoding="utf-8"?>
<!-- Generator: Adobe Illustrator 14.0.0, SVG Export Plug-In . SVG Version: 6.00 Build 43363)  -->
<!DOCTYPE svg PUBLIC "-//W3C//DTD SVG 1.1//EN" "http://www.w3.org/Graphics/SVG/1.1/DTD/svg11.dtd">
<svg version="1.1" id="Layer_2" xmlns="http://www.w3.org/2000/svg" xmlns:xlink="http://www.w3.org/1999/xlink" x="0px" y="0px"
	 width="989px" height="720px" viewBox="0 0 989 720" enable-background="new 0 0 989 720" xml:space="preserve">
<g id="XMLID_2_">
	<path fill="#4B4747" d="M940.105,273.6c2.48-6.029,4.629-11.899,6.439-17.609c0.109-0.33,0.221-0.66,0.32-0.98
		c0.109-0.38,0.23-0.76,0.34-1.13c1.59-5.68,0.74-9.16-3.42-11.8c3.84-14.17,5.6-26.521,5.6-38.84
		c0.01-17.38-3.529-31.85-9.49-45.38c-4.469-10.15-10.27-19.21-16.889-27.26c-9.92-12.09-21.641-21.93-33.551-30.07
		c-8.16-5.57-16.42-10.35-24.29-14.47c2.989-4.23,5.79-8.3,7.64-11.33c0.121-0.19,0.23-0.36,0.33-0.54
		c2.18-4.51-5.039-12.52-16.14-17.9c-11.09-5.37-21.86-6.07-24.04-1.57c-0.061,0.16-0.12,0.33-0.189,0.49
		c-3.94,10.63-10.23,35.73-11.711,37.2c-1.49,1.5-30.899-6.22-51.93,34.3c3.67-6.62,16.33-7.71,31.85-3.68
		c6.351,1.64,13.181,4.14,20.07,7.48c6.891,3.34,13.09,7.14,18.32,11.1v0.01c12.76,9.66,19.75,20.25,16.87,27.24
		c18.72-41.59-5.55-59.89-5.3-61.98c0.08-0.66,1.789-3.28,4.27-6.84c6.859,3.52,14,7.53,21.01,12.09
		c14.67,9.54,28.801,21.51,39.121,36.51c5.17,7.5,9.41,15.76,12.379,24.95c2.971,9.2,4.67,18.33,4.67,29.65
		c0,10.59-1.5,21.319-4.92,34.069c-4.959-0.09-6.98,1.99-7.719,4.48c-2.092,6.83-4.721,13.99-7.932,21.479
		c-5.35-1.029-11-1.619-16.84-1.619c-33.949,0-61.469,20.02-61.469,28.13c0,8.109,27.52,14.68,61.469,14.68
		c33.961,0,61.48-6.57,61.48-14.68C956.455,285.93,950.256,279.39,940.105,273.6z"/>
	<path fill="#FEE1B0" d="M839.365,141.62c12.76,9.66,19.75,20.25,16.87,27.24c-0.06,0.15-0.13,0.3-0.2,0.45
		c-4.74,9.77-28.08,8.25-52.13-3.41c-24.06-11.65-39.72-29.02-34.99-38.79c0.07-0.14,0.14-0.27,0.21-0.4
		c3.67-6.62,16.33-7.71,31.85-3.68c-0.869,2.33-1.35,4.85-1.35,7.48c0,11.83,9.59,21.42,21.42,21.42
		C828.805,151.93,835.605,147.8,839.365,141.62z"/>
	<path fill="#FFFFFF" d="M839.365,141.61v0.01c-3.76,6.18-10.561,10.31-18.32,10.31c-11.83,0-21.42-9.59-21.42-21.42
		c0-2.63,0.48-5.15,1.35-7.48c6.351,1.64,13.181,4.14,20.07,7.48C827.936,133.85,834.135,137.65,839.365,141.61z"/>
</g>
</svg>
